<svg width="320" height="68" viewBox="0 0 320 68" fill="none" xmlns="http://www.w3.org/2000/svg">
<g filter="url(#filter0_d_57_366)">
<rect x="4" width="60" height="60" rx="8" fill="#DC8744"/>
</g>
<g filter="url(#filter1_d_57_366)">
<path d="M97.932 25.816C97.452 25.696 96.888 25.576 96.24 25.456C95.592 25.312 94.896 25.24 94.152 25.24C93.816 25.24 93.408 25.276 92.928 25.348C92.472 25.396 92.124 25.456 91.884 25.528V40H86.52V22.072C87.48 21.736 88.608 21.424 89.904 21.136C91.224 20.824 92.688 20.668 94.296 20.668C94.584 20.668 94.932 20.692 95.34 20.74C95.748 20.764 96.156 20.812 96.564 20.884C96.972 20.932 97.38 21.004 97.788 21.1C98.196 21.172 98.544 21.268 98.832 21.388L97.932 25.816ZM100.456 30.676C100.456 28.996 100.708 27.532 101.212 26.284C101.74 25.012 102.424 23.956 103.264 23.116C104.104 22.276 105.064 21.64 106.144 21.208C107.248 20.776 108.376 20.56 109.528 20.56C112.216 20.56 114.34 21.388 115.9 23.044C117.46 24.676 118.24 27.088 118.24 30.28C118.24 30.592 118.228 30.94 118.204 31.324C118.18 31.684 118.156 32.008 118.132 32.296H105.964C106.084 33.4 106.6 34.276 107.512 34.924C108.424 35.572 109.648 35.896 111.184 35.896C112.168 35.896 113.128 35.812 114.064 35.644C115.024 35.452 115.804 35.224 116.404 34.96L117.124 39.316C116.836 39.46 116.452 39.604 115.972 39.748C115.492 39.892 114.952 40.012 114.352 40.108C113.776 40.228 113.152 40.324 112.48 40.396C111.808 40.468 111.136 40.504 110.464 40.504C108.76 40.504 107.272 40.252 106 39.748C104.752 39.244 103.708 38.56 102.868 37.696C102.052 36.808 101.44 35.764 101.032 34.564C100.648 33.364 100.456 32.068 100.456 30.676ZM113.056 28.624C113.032 28.168 112.948 27.724 112.804 27.292C112.684 26.86 112.48 26.476 112.192 26.14C111.928 25.804 111.58 25.528 111.148 25.312C110.74 25.096 110.224 24.988 109.6 24.988C109 24.988 108.484 25.096 108.052 25.312C107.62 25.504 107.26 25.768 106.972 26.104C106.684 26.44 106.456 26.836 106.288 27.292C106.144 27.724 106.036 28.168 105.964 28.624H113.056ZM132.783 29.956C132.783 28.228 132.555 27.004 132.099 26.284C131.667 25.564 130.911 25.204 129.831 25.204C129.495 25.204 129.147 25.228 128.787 25.276C128.427 25.3 128.079 25.336 127.743 25.384V40H122.379V21.712C122.835 21.592 123.363 21.472 123.963 21.352C124.587 21.208 125.235 21.088 125.907 20.992C126.603 20.872 127.311 20.788 128.031 20.74C128.751 20.668 129.459 20.632 130.155 20.632C131.523 20.632 132.627 20.812 133.467 21.172C134.331 21.508 135.039 21.916 135.591 22.396C136.359 21.844 137.235 21.412 138.219 21.1C139.227 20.788 140.151 20.632 140.991 20.632C142.503 20.632 143.739 20.848 144.699 21.28C145.683 21.688 146.463 22.276 147.039 23.044C147.615 23.812 148.011 24.724 148.227 25.78C148.443 26.836 148.551 28.012 148.551 29.308V40H143.187V29.956C143.187 28.228 142.959 27.004 142.503 26.284C142.071 25.564 141.315 25.204 140.235 25.204C139.947 25.204 139.539 25.276 139.011 25.42C138.507 25.564 138.087 25.744 137.751 25.96C137.919 26.512 138.027 27.1 138.075 27.724C138.123 28.324 138.147 28.972 138.147 29.668V40H132.783V29.956ZM152.522 30.676C152.522 28.996 152.774 27.532 153.278 26.284C153.806 25.012 154.49 23.956 155.33 23.116C156.17 22.276 157.13 21.64 158.21 21.208C159.314 20.776 160.442 20.56 161.594 20.56C164.282 20.56 166.406 21.388 167.966 23.044C169.526 24.676 170.306 27.088 170.306 30.28C170.306 30.592 170.294 30.94 170.27 31.324C170.246 31.684 170.222 32.008 170.198 32.296H158.03C158.15 33.4 158.666 34.276 159.578 34.924C160.49 35.572 161.714 35.896 163.25 35.896C164.234 35.896 165.194 35.812 166.13 35.644C167.09 35.452 167.87 35.224 168.47 34.96L169.19 39.316C168.902 39.46 168.518 39.604 168.038 39.748C167.558 39.892 167.018 40.012 166.418 40.108C165.842 40.228 165.218 40.324 164.546 40.396C163.874 40.468 163.202 40.504 162.53 40.504C160.826 40.504 159.338 40.252 158.066 39.748C156.818 39.244 155.774 38.56 154.934 37.696C154.118 36.808 153.506 35.764 153.098 34.564C152.714 33.364 152.522 32.068 152.522 30.676ZM165.122 28.624C165.098 28.168 165.014 27.724 164.87 27.292C164.75 26.86 164.546 26.476 164.258 26.14C163.994 25.804 163.646 25.528 163.214 25.312C162.806 25.096 162.29 24.988 161.666 24.988C161.066 24.988 160.55 25.096 160.118 25.312C159.686 25.504 159.326 25.768 159.038 26.104C158.75 26.44 158.522 26.836 158.354 27.292C158.21 27.724 158.102 28.168 158.03 28.624H165.122ZM184.85 29.956C184.85 28.228 184.622 27.004 184.166 26.284C183.734 25.564 182.978 25.204 181.898 25.204C181.562 25.204 181.214 25.228 180.854 25.276C180.494 25.3 180.146 25.336 179.81 25.384V40H174.446V21.712C174.902 21.592 175.43 21.472 176.03 21.352C176.654 21.208 177.302 21.088 177.974 20.992C178.67 20.872 179.378 20.788 180.098 20.74C180.818 20.668 181.526 20.632 182.222 20.632C183.59 20.632 184.694 20.812 185.534 21.172C186.398 21.508 187.106 21.916 187.658 22.396C188.426 21.844 189.302 21.412 190.286 21.1C191.294 20.788 192.218 20.632 193.058 20.632C194.57 20.632 195.806 20.848 196.766 21.28C197.75 21.688 198.53 22.276 199.106 23.044C199.682 23.812 200.078 24.724 200.294 25.78C200.51 26.836 200.618 28.012 200.618 29.308V40H195.254V29.956C195.254 28.228 195.026 27.004 194.57 26.284C194.138 25.564 193.382 25.204 192.302 25.204C192.014 25.204 191.606 25.276 191.078 25.42C190.574 25.564 190.154 25.744 189.818 25.96C189.986 26.512 190.094 27.1 190.142 27.724C190.19 28.324 190.214 28.972 190.214 29.668V40H184.85V29.956ZM217.621 30.388C217.621 26.932 216.349 25.204 213.805 25.204C213.253 25.204 212.701 25.276 212.149 25.42C211.621 25.564 211.189 25.744 210.853 25.96V35.716C211.117 35.764 211.453 35.812 211.861 35.86C212.269 35.884 212.713 35.896 213.193 35.896C214.657 35.896 215.761 35.392 216.505 34.384C217.249 33.376 217.621 32.044 217.621 30.388ZM223.093 30.532C223.093 32.044 222.865 33.412 222.409 34.636C221.977 35.86 221.341 36.904 220.501 37.768C219.661 38.632 218.629 39.304 217.405 39.784C216.181 40.24 214.789 40.468 213.229 40.468C212.581 40.468 211.897 40.432 211.177 40.36C210.481 40.312 209.785 40.24 209.089 40.144C208.417 40.048 207.769 39.94 207.145 39.82C206.521 39.676 205.969 39.532 205.489 39.388V12.928L210.853 12.064V21.496C211.453 21.232 212.077 21.028 212.725 20.884C213.373 20.74 214.069 20.668 214.813 20.668C216.157 20.668 217.345 20.908 218.377 21.388C219.409 21.844 220.273 22.504 220.969 23.368C221.665 24.232 222.193 25.276 222.553 26.5C222.913 27.7 223.093 29.044 223.093 30.532ZM226.315 30.676C226.315 28.996 226.567 27.532 227.071 26.284C227.599 25.012 228.283 23.956 229.123 23.116C229.963 22.276 230.923 21.64 232.003 21.208C233.107 20.776 234.235 20.56 235.387 20.56C238.075 20.56 240.199 21.388 241.759 23.044C243.319 24.676 244.099 27.088 244.099 30.28C244.099 30.592 244.087 30.94 244.063 31.324C244.039 31.684 244.015 32.008 243.991 32.296H231.823C231.943 33.4 232.459 34.276 233.371 34.924C234.283 35.572 235.507 35.896 237.043 35.896C238.027 35.896 238.987 35.812 239.923 35.644C240.883 35.452 241.663 35.224 242.263 34.96L242.983 39.316C242.695 39.46 242.311 39.604 241.831 39.748C241.351 39.892 240.811 40.012 240.211 40.108C239.635 40.228 239.011 40.324 238.339 40.396C237.667 40.468 236.995 40.504 236.323 40.504C234.619 40.504 233.131 40.252 231.859 39.748C230.611 39.244 229.567 38.56 228.727 37.696C227.911 36.808 227.299 35.764 226.891 34.564C226.507 33.364 226.315 32.068 226.315 30.676ZM238.915 28.624C238.891 28.168 238.807 27.724 238.663 27.292C238.543 26.86 238.339 26.476 238.051 26.14C237.787 25.804 237.439 25.528 237.007 25.312C236.599 25.096 236.083 24.988 235.459 24.988C234.859 24.988 234.343 25.096 233.911 25.312C233.479 25.504 233.119 25.768 232.831 26.104C232.543 26.44 232.315 26.836 232.147 27.292C232.003 27.724 231.895 28.168 231.823 28.624H238.915ZM259.651 25.816C259.171 25.696 258.607 25.576 257.959 25.456C257.311 25.312 256.615 25.24 255.871 25.24C255.535 25.24 255.127 25.276 254.647 25.348C254.191 25.396 253.843 25.456 253.603 25.528V40H248.239V22.072C249.199 21.736 250.327 21.424 251.623 21.136C252.943 20.824 254.407 20.668 256.015 20.668C256.303 20.668 256.651 20.692 257.059 20.74C257.467 20.764 257.875 20.812 258.283 20.884C258.691 20.932 259.099 21.004 259.507 21.1C259.915 21.172 260.263 21.268 260.551 21.388L259.651 25.816ZM262.742 30.676C262.742 29.02 262.982 27.58 263.462 26.356C263.942 25.108 264.578 24.076 265.37 23.26C266.162 22.444 267.074 21.832 268.106 21.424C269.138 21.016 270.194 20.812 271.274 20.812C273.794 20.812 275.726 21.604 277.07 23.188C278.414 24.748 279.086 27.136 279.086 30.352C279.086 30.496 279.086 30.688 279.086 30.928C279.086 31.144 279.074 31.348 279.05 31.54H266.234C266.378 33.484 266.942 34.96 267.926 35.968C268.91 36.976 270.446 37.48 272.534 37.48C273.71 37.48 274.694 37.384 275.486 37.192C276.302 36.976 276.914 36.772 277.322 36.58L277.79 39.388C277.382 39.604 276.662 39.832 275.63 40.072C274.622 40.312 273.47 40.432 272.174 40.432C270.542 40.432 269.126 40.192 267.926 39.712C266.75 39.208 265.778 38.524 265.01 37.66C264.242 36.796 263.666 35.776 263.282 34.6C262.922 33.4 262.742 32.092 262.742 30.676ZM275.594 28.84C275.618 27.328 275.234 26.092 274.442 25.132C273.674 24.148 272.606 23.656 271.238 23.656C270.47 23.656 269.786 23.812 269.186 24.124C268.61 24.412 268.118 24.796 267.71 25.276C267.302 25.756 266.978 26.308 266.738 26.932C266.522 27.556 266.378 28.192 266.306 28.84H275.594ZM295.992 25.24C295.584 24.904 294.996 24.58 294.228 24.268C293.46 23.956 292.62 23.8 291.708 23.8C290.748 23.8 289.92 23.98 289.224 24.34C288.552 24.676 288 25.156 287.568 25.78C287.136 26.38 286.824 27.1 286.632 27.94C286.44 28.78 286.344 29.68 286.344 30.64C286.344 32.824 286.884 34.516 287.964 35.716C289.044 36.892 290.484 37.48 292.284 37.48C293.196 37.48 293.952 37.444 294.552 37.372C295.176 37.276 295.656 37.18 295.992 37.084V25.24ZM295.992 12.64L299.34 12.064V39.46C298.572 39.676 297.588 39.892 296.388 40.108C295.188 40.324 293.808 40.432 292.248 40.432C290.808 40.432 289.512 40.204 288.36 39.748C287.208 39.292 286.224 38.644 285.408 37.804C284.592 36.964 283.956 35.944 283.5 34.744C283.068 33.52 282.852 32.152 282.852 30.64C282.852 29.2 283.032 27.88 283.392 26.68C283.776 25.48 284.328 24.448 285.048 23.584C285.768 22.72 286.644 22.048 287.676 21.568C288.732 21.088 289.932 20.848 291.276 20.848C292.356 20.848 293.304 20.992 294.12 21.28C294.96 21.568 295.584 21.844 295.992 22.108V12.64Z" fill="black" fill-opacity="0.7"/>
</g>
<path d="M17.8333 30.6967L27.4743 40.2708L49.1666 18.7292" stroke="white" stroke-width="5.33333" stroke-linecap="round" stroke-linejoin="round"/>
<defs>
<filter id="filter0_d_57_366" x="0" y="0" width="68" height="68" filterUnits="userSpaceOnUse" color-interpolation-filters="sRGB">
<feFlood flood-opacity="0" result="BackgroundImageFix"/>
<feColorMatrix in="SourceAlpha" type="matrix" values="0 0 0 0 0 0 0 0 0 0 0 0 0 0 0 0 0 0 127 0" result="hardAlpha"/>
<feOffset dy="4"/>
<feGaussianBlur stdDeviation="2"/>
<feComposite in2="hardAlpha" operator="out"/>
<feColorMatrix type="matrix" values="0 0 0 0 0 0 0 0 0 0 0 0 0 0 0 0 0 0 0.25 0"/>
<feBlend mode="normal" in2="BackgroundImageFix" result="effect1_dropShadow_57_366"/>
<feBlend mode="normal" in="SourceGraphic" in2="effect1_dropShadow_57_366" result="shape"/>
</filter>
<filter id="filter1_d_57_366" x="82.52" y="12.064" width="220.82" height="36.44" filterUnits="userSpaceOnUse" color-interpolation-filters="sRGB">
<feFlood flood-opacity="0" result="BackgroundImageFix"/>
<feColorMatrix in="SourceAlpha" type="matrix" values="0 0 0 0 0 0 0 0 0 0 0 0 0 0 0 0 0 0 127 0" result="hardAlpha"/>
<feOffset dy="4"/>
<feGaussianBlur stdDeviation="2"/>
<feComposite in2="hardAlpha" operator="out"/>
<feColorMatrix type="matrix" values="0 0 0 0 0 0 0 0 0 0 0 0 0 0 0 0 0 0 0.25 0"/>
<feBlend mode="normal" in2="BackgroundImageFix" result="effect1_dropShadow_57_366"/>
<feBlend mode="normal" in="SourceGraphic" in2="effect1_dropShadow_57_366" result="shape"/>
</filter>
</defs>
</svg>
