<svg width="772" height="972" viewBox="0 0 772 972" fill="none" xmlns="http://www.w3.org/2000/svg">
<path d="M772 46.8495H0V972H772V46.8495Z" fill="#DC8744"/>
<path d="M718.048 80.4865H53.9739V927.47H718.048V80.4865Z" fill="#D5D6DB"/>
<path d="M718.048 46.8495H53.9739V893.833H718.048V46.8495Z" fill="#EBF0F3"/>
<path d="M718.058 154.795H53.9845V163.21H718.058V154.795Z" fill="#E56353"/>
<path d="M718.058 145.036H53.9845V148.388H718.058V145.036Z" fill="#E56353"/>
<path d="M95.6015 98.8426C101.604 98.8426 106.47 94.3094 106.47 88.7173C106.47 83.1252 101.604 78.592 95.6015 78.592C89.599 78.592 84.7329 83.1252 84.7329 88.7173C84.7329 94.3094 89.599 98.8426 95.6015 98.8426Z" fill="#E1E6E9"/>
<path d="M99.5011 93.7028C84.5483 93.7028 72.822 73.1179 72.822 46.8514C72.822 20.5849 84.5483 0 99.5011 0C114.454 0 126.182 20.5849 126.182 46.8494H117.154C117.154 24.198 107.844 8.41075 99.5011 8.41075C91.1628 8.41075 81.8523 24.198 81.8523 46.8494C81.8523 69.5029 91.1628 85.2901 99.5011 85.2901V93.7028Z" fill="#64798A"/>
<path d="M159.281 98.8426C165.283 98.8426 170.149 94.3094 170.149 88.7173C170.149 83.1252 165.283 78.592 159.281 78.592C153.278 78.592 148.412 83.1252 148.412 88.7173C148.412 94.3094 153.278 98.8426 159.281 98.8426Z" fill="#E1E6E9"/>
<path d="M163.17 93.7028C148.215 93.7028 136.491 73.1179 136.491 46.8514C136.491 20.5849 148.215 0.00195312 163.17 0.00195312C178.123 0.00195312 189.849 20.5868 189.849 46.8514H180.821C180.821 24.1999 171.51 8.4127 163.172 8.4127C154.829 8.4127 145.519 24.1999 145.519 46.8514C145.519 69.5048 154.829 85.292 163.172 85.292L163.17 93.7028Z" fill="#64798A"/>
<path d="M222.928 98.8426C228.931 98.8426 233.797 94.3094 233.797 88.7173C233.797 83.1252 228.931 78.592 222.928 78.592C216.926 78.592 212.059 83.1252 212.059 88.7173C212.059 94.3094 216.926 98.8426 222.928 98.8426Z" fill="#E1E6E9"/>
<path d="M226.834 93.7028C211.881 93.7028 200.155 73.1179 200.155 46.8514C200.155 20.5849 211.881 0.00195312 226.834 0.00195312C241.785 0.00195312 253.513 20.5868 253.513 46.8514H244.485C244.485 24.1999 235.176 8.4127 226.836 8.4127C218.493 8.4127 209.185 24.1999 209.185 46.8514C209.185 69.5048 218.493 85.292 226.836 85.292L226.834 93.7028Z" fill="#64798A"/>
<path d="M286.597 98.8426C292.599 98.8426 297.465 94.3094 297.465 88.7173C297.465 83.1252 292.599 78.592 286.597 78.592C280.594 78.592 275.728 83.1252 275.728 88.7173C275.728 94.3094 280.594 98.8426 286.597 98.8426Z" fill="#E1E6E9"/>
<path d="M290.501 93.7028C275.548 93.7028 263.821 73.1179 263.821 46.8514C263.821 20.5849 275.546 0.00195312 290.501 0.00195312C305.456 0.00195312 317.182 20.5868 317.182 46.8514H308.154C308.154 24.1999 298.843 8.4127 290.501 8.4127C282.162 8.4127 272.852 24.1999 272.852 46.8514C272.852 69.5048 282.162 85.292 290.501 85.292V93.7028Z" fill="#64798A"/>
<path d="M350.265 98.8426C356.268 98.8426 361.134 94.3094 361.134 88.7173C361.134 83.1252 356.268 78.592 350.265 78.592C344.262 78.592 339.396 83.1252 339.396 88.7173C339.396 94.3094 344.262 98.8426 350.265 98.8426Z" fill="#E1E6E9"/>
<path d="M354.167 93.7028C339.214 93.7028 327.488 73.1179 327.488 46.8514C327.488 20.5849 339.214 0.00195312 354.167 0.00195312C369.12 0.00195312 380.846 20.5868 380.846 46.8514H371.82C371.82 24.1999 362.507 8.4127 354.169 8.4127C345.828 8.4127 336.516 24.1999 336.516 46.8514C336.516 69.5048 345.828 85.292 354.169 85.292V93.7028H354.167Z" fill="#64798A"/>
<path d="M413.934 98.8426C419.936 98.8426 424.802 94.3094 424.802 88.7173C424.802 83.1252 419.936 78.592 413.934 78.592C407.931 78.592 403.065 83.1252 403.065 88.7173C403.065 94.3094 407.931 98.8426 413.934 98.8426Z" fill="#E1E6E9"/>
<path d="M417.833 93.7028C402.88 93.7028 391.154 73.1179 391.154 46.8514C391.154 20.5849 402.88 0.00195312 417.833 0.00195312C432.784 0.00195312 444.512 20.5868 444.512 46.8514H435.484C435.484 24.1999 426.176 8.4127 417.835 8.4127C409.495 8.4127 400.184 24.1999 400.184 46.8514C400.184 69.5048 409.495 85.292 417.835 85.292V93.7028H417.833Z" fill="#64798A"/>
<path d="M477.623 98.8426C483.626 98.8426 488.492 94.3094 488.492 88.7173C488.492 83.1252 483.626 78.592 477.623 78.592C471.621 78.592 466.755 83.1252 466.755 88.7173C466.755 94.3094 471.621 98.8426 477.623 98.8426Z" fill="#E1E6E9"/>
<path d="M481.498 93.7028C466.547 93.7028 454.818 73.1179 454.818 46.8514C454.818 20.5849 466.545 0.00195312 481.498 0.00195312C496.453 0.00195312 508.179 20.5868 508.179 46.8514H499.151C499.151 24.1999 489.84 8.4127 481.498 8.4127C473.159 8.4127 463.849 24.1999 463.849 46.8514C463.849 69.5048 473.159 85.292 481.498 85.292V93.7028Z" fill="#64798A"/>
<path d="M541.313 98.8426C547.316 98.8426 552.182 94.3094 552.182 88.7173C552.182 83.1252 547.316 78.592 541.313 78.592C535.311 78.592 530.445 83.1252 530.445 88.7173C530.445 94.3094 535.311 98.8426 541.313 98.8426Z" fill="#E1E6E9"/>
<path d="M545.166 93.7028C530.213 93.7028 518.487 73.1179 518.487 46.8514C518.487 20.5849 530.211 0.00195312 545.166 0.00195312C560.119 0.00195312 571.843 20.5868 571.843 46.8514H562.817C562.817 24.1999 553.504 8.4127 545.166 8.4127C536.826 8.4127 527.517 24.1999 527.517 46.8514C527.517 69.5048 536.826 85.292 545.166 85.292V93.7028Z" fill="#64798A"/>
<path d="M604.895 98.8426C610.897 98.8426 615.763 94.3094 615.763 88.7173C615.763 83.1252 610.897 78.592 604.895 78.592C598.892 78.592 594.026 83.1252 594.026 88.7173C594.026 94.3094 598.892 98.8426 604.895 98.8426Z" fill="#E1E6E9"/>
<path d="M608.833 93.7028C593.88 93.7028 582.154 73.1179 582.154 46.8514C582.154 20.5849 593.88 0.00195312 608.833 0.00195312C623.786 0.00195312 635.512 20.5868 635.512 46.8514H626.481C626.481 24.1999 617.173 8.4127 608.833 8.4127C600.492 8.4127 591.182 24.1999 591.182 46.8514C591.182 69.5048 600.492 85.292 608.833 85.292V93.7028Z" fill="#64798A"/>
<path d="M668.585 98.8426C674.587 98.8426 679.453 94.3094 679.453 88.7173C679.453 83.1252 674.587 78.592 668.585 78.592C662.582 78.592 657.716 83.1252 657.716 88.7173C657.716 94.3094 662.582 98.8426 668.585 98.8426Z" fill="#E1E6E9"/>
<path d="M672.501 93.7028C657.546 93.7028 645.82 73.1179 645.82 46.8514C645.82 20.5849 657.546 0.00195312 672.501 0.00195312C687.452 0.00195312 699.18 20.5868 699.18 46.8514H690.152C690.152 24.1999 680.841 8.4127 672.503 8.4127C664.161 8.4127 654.85 24.1999 654.85 46.8514C654.85 69.5048 664.161 85.292 672.503 85.292L672.501 93.7028Z" fill="#64798A"/>
</svg>
