<svg width="995" height="834" viewBox="0 0 995 834" fill="none" xmlns="http://www.w3.org/2000/svg">
<path d="M777.344 26.0625C768.746 26.0625 761.797 31.8875 761.797 39.0938V52.125V78.1875V130.312C761.797 137.519 768.746 143.344 777.344 143.344C785.941 143.344 792.891 137.519 792.891 130.312V78.1875V52.125V39.0938C792.891 31.8875 785.941 26.0625 777.344 26.0625Z" fill="#64798A"/>
<path d="M217.656 26.0625C209.059 26.0625 202.109 31.8875 202.109 39.0938V52.125V78.1875V130.312C202.109 137.519 209.059 143.344 217.656 143.344C226.254 143.344 233.203 137.519 233.203 130.312V78.1875V52.125V39.0938C233.203 31.8875 226.254 26.0625 217.656 26.0625Z" fill="#64798A"/>
<path d="M963.906 781.875C963.906 796.261 949.976 807.938 932.812 807.938H62.1875C45.0238 807.938 31.0938 796.261 31.0938 781.875V221.531H963.906V781.875Z" fill="#F4EED7"/>
<path d="M963.906 195.469H31.0938V104.25C31.0938 89.8635 45.0238 78.1875 62.1875 78.1875H171.016V130.312C171.016 151.905 191.895 169.406 217.656 169.406C243.417 169.406 264.297 151.905 264.297 130.312V78.1875H730.703V130.312C730.703 151.905 751.583 169.406 777.344 169.406C803.105 169.406 823.984 151.905 823.984 130.312V78.1875H932.812C949.976 78.1875 963.906 89.8635 963.906 104.25V195.469Z" fill="#F76D57"/>
<path d="M932.812 52.125H823.984V39.0938C823.984 17.501 803.105 0 777.344 0C751.583 0 730.703 17.501 730.703 39.0938V52.125H264.297V39.0938C264.297 17.501 243.417 0 217.656 0C191.895 0 171.016 17.501 171.016 39.0938V52.125H62.1875C27.8134 52.125 0 75.4379 0 104.25V781.875C0 810.687 27.8134 834 62.1875 834H932.812C967.187 834 995 810.687 995 781.875V104.25C995 75.4379 967.187 52.125 932.812 52.125ZM761.797 39.0938C761.797 31.8875 768.746 26.0625 777.344 26.0625C785.941 26.0625 792.891 31.8875 792.891 39.0938V130.312C792.891 137.519 785.941 143.344 777.344 143.344C768.746 143.344 761.797 137.519 761.797 130.312V39.0938ZM202.109 39.0938C202.109 31.8875 209.059 26.0625 217.656 26.0625C226.254 26.0625 233.203 31.8875 233.203 39.0938V130.312C233.203 137.519 226.254 143.344 217.656 143.344C209.059 143.344 202.109 137.519 202.109 130.312V39.0938ZM963.906 781.875C963.906 796.261 949.976 807.938 932.812 807.938H62.1875C45.0238 807.938 31.0938 796.261 31.0938 781.875V221.531H963.906V781.875ZM963.906 195.469H31.0938V104.25C31.0938 89.8635 45.0238 78.1875 62.1875 78.1875H171.016V130.312C171.016 151.905 191.895 169.406 217.656 169.406C243.417 169.406 264.297 151.905 264.297 130.312V78.1875H730.703V130.312C730.703 151.905 751.583 169.406 777.344 169.406C803.105 169.406 823.984 151.905 823.984 130.312V78.1875H932.812C949.976 78.1875 963.906 89.8635 963.906 104.25V195.469Z" fill="#394240"/>
</svg>
